%TF.GenerationSoftware,KiCad,Pcbnew,8.0.5*%
%TF.CreationDate,2025-04-03T13:13:55-04:00*%
%TF.ProjectId,BMX160-Interface,424d5831-3630-42d4-996e-746572666163,rev?*%
%TF.SameCoordinates,Original*%
%TF.FileFunction,Legend,Top*%
%TF.FilePolarity,Positive*%
%FSLAX46Y46*%
G04 Gerber Fmt 4.6, Leading zero omitted, Abs format (unit mm)*
G04 Created by KiCad (PCBNEW 8.0.5) date 2025-04-03 13:13:55*
%MOMM*%
%LPD*%
G01*
G04 APERTURE LIST*
%ADD10C,0.100000*%
%ADD11C,0.150000*%
%ADD12C,0.152400*%
%ADD13C,0.000000*%
G04 APERTURE END LIST*
D10*
X127345000Y-80020000D02*
G75*
G02*
X127265000Y-80020000I-40000J0D01*
G01*
X127265000Y-80020000D02*
G75*
G02*
X127345000Y-80020000I40000J0D01*
G01*
D11*
X127560200Y-80454819D02*
X127560200Y-80692914D01*
X127322105Y-80597676D02*
X127560200Y-80692914D01*
X127560200Y-80692914D02*
X127798295Y-80597676D01*
X127417343Y-80883390D02*
X127560200Y-80692914D01*
X127560200Y-80692914D02*
X127703057Y-80883390D01*
X127560200Y-80454819D02*
X127560200Y-80692914D01*
X127322105Y-80597676D02*
X127560200Y-80692914D01*
X127560200Y-80692914D02*
X127798295Y-80597676D01*
X127417343Y-80883390D02*
X127560200Y-80692914D01*
X127560200Y-80692914D02*
X127703057Y-80883390D01*
D12*
%TO.C,U1*%
X129040261Y-80628400D02*
X128374400Y-80628400D01*
X131625600Y-80628400D02*
X130959739Y-80628400D01*
X130959739Y-83371600D02*
X131625600Y-83371600D01*
X128374400Y-83371600D02*
X129040261Y-83371600D01*
D13*
G36*
X132312800Y-81940501D02*
G01*
X132058800Y-81940501D01*
X132058800Y-81559500D01*
X132312800Y-81559500D01*
X132312800Y-81940501D01*
G37*
%TD*%
G36*
X131876000Y-83319586D02*
G01*
X131876000Y-83990414D01*
X131875414Y-83991000D01*
X131624586Y-83991000D01*
X131624000Y-83990414D01*
X131624000Y-83319586D01*
X131624586Y-83319000D01*
X131875414Y-83319000D01*
X131876000Y-83319586D01*
G37*
G36*
X127946000Y-82619586D02*
G01*
X127946000Y-82870414D01*
X127945414Y-82871000D01*
X127274586Y-82871000D01*
X127274000Y-82870414D01*
X127274000Y-82619586D01*
X127274586Y-82619000D01*
X127945414Y-82619000D01*
X127946000Y-82619586D01*
G37*
G36*
X132726000Y-81619586D02*
G01*
X132726000Y-81870414D01*
X132725414Y-81871000D01*
X132054586Y-81871000D01*
X132054000Y-81870414D01*
X132054000Y-81619586D01*
X132054586Y-81619000D01*
X132725414Y-81619000D01*
X132726000Y-81619586D01*
G37*
G36*
X127946000Y-82119586D02*
G01*
X127946000Y-82370414D01*
X127945414Y-82371000D01*
X127274586Y-82371000D01*
X127274000Y-82370414D01*
X127274000Y-82119586D01*
X127274586Y-82119000D01*
X127945414Y-82119000D01*
X127946000Y-82119586D01*
G37*
G36*
X132376000Y-83319586D02*
G01*
X132376000Y-83990414D01*
X132375414Y-83991000D01*
X132124586Y-83991000D01*
X132124000Y-83990414D01*
X132124000Y-83319586D01*
X132124586Y-83319000D01*
X132375414Y-83319000D01*
X132376000Y-83319586D01*
G37*
G36*
X127946000Y-81619586D02*
G01*
X127946000Y-81870414D01*
X127945414Y-81871000D01*
X127274586Y-81871000D01*
X127274000Y-81870414D01*
X127274000Y-81619586D01*
X127274586Y-81619000D01*
X127945414Y-81619000D01*
X127946000Y-81619586D01*
G37*
G36*
X127946000Y-81119586D02*
G01*
X127946000Y-81370414D01*
X127945414Y-81371000D01*
X127274586Y-81371000D01*
X127274000Y-81370414D01*
X127274000Y-81119586D01*
X127274586Y-81119000D01*
X127945414Y-81119000D01*
X127946000Y-81119586D01*
G37*
G36*
X128876000Y-83319586D02*
G01*
X128876000Y-83990414D01*
X128875414Y-83991000D01*
X128624586Y-83991000D01*
X128624000Y-83990414D01*
X128624000Y-83319586D01*
X128624586Y-83319000D01*
X128875414Y-83319000D01*
X128876000Y-83319586D01*
G37*
G36*
X131876000Y-79999586D02*
G01*
X131876000Y-80670414D01*
X131875414Y-80671000D01*
X131624586Y-80671000D01*
X131624000Y-80670414D01*
X131624000Y-79999586D01*
X131624586Y-79999000D01*
X131875414Y-79999000D01*
X131876000Y-79999586D01*
G37*
G36*
X132726000Y-81119586D02*
G01*
X132726000Y-81370414D01*
X132725414Y-81371000D01*
X132054586Y-81371000D01*
X132054000Y-81370414D01*
X132054000Y-81119586D01*
X132054586Y-81119000D01*
X132725414Y-81119000D01*
X132726000Y-81119586D01*
G37*
G36*
X128376000Y-79999586D02*
G01*
X128376000Y-80670414D01*
X128375414Y-80671000D01*
X128124586Y-80671000D01*
X128124000Y-80670414D01*
X128124000Y-79999586D01*
X128124586Y-79999000D01*
X128375414Y-79999000D01*
X128376000Y-79999586D01*
G37*
G36*
X131376000Y-79999586D02*
G01*
X131376000Y-80670414D01*
X131375414Y-80671000D01*
X131124586Y-80671000D01*
X131124000Y-80670414D01*
X131124000Y-79999586D01*
X131124586Y-79999000D01*
X131375414Y-79999000D01*
X131376000Y-79999586D01*
G37*
G36*
X132726000Y-82119586D02*
G01*
X132726000Y-82370414D01*
X132725414Y-82371000D01*
X132054586Y-82371000D01*
X132054000Y-82370414D01*
X132054000Y-82119586D01*
X132054586Y-82119000D01*
X132725414Y-82119000D01*
X132726000Y-82119586D01*
G37*
G36*
X127876000Y-83319586D02*
G01*
X127876000Y-83990414D01*
X127875414Y-83991000D01*
X127624586Y-83991000D01*
X127624000Y-83990414D01*
X127624000Y-83319586D01*
X127624586Y-83319000D01*
X127875414Y-83319000D01*
X127876000Y-83319586D01*
G37*
G36*
X131376000Y-83319586D02*
G01*
X131376000Y-83990414D01*
X131375414Y-83991000D01*
X131124586Y-83991000D01*
X131124000Y-83990414D01*
X131124000Y-83319586D01*
X131124586Y-83319000D01*
X131375414Y-83319000D01*
X131376000Y-83319586D01*
G37*
G36*
X127876000Y-79999586D02*
G01*
X127876000Y-80670414D01*
X127875414Y-80671000D01*
X127624586Y-80671000D01*
X127624000Y-80670414D01*
X127624000Y-79999586D01*
X127624586Y-79999000D01*
X127875414Y-79999000D01*
X127876000Y-79999586D01*
G37*
G36*
X128376000Y-83319586D02*
G01*
X128376000Y-83990414D01*
X128375414Y-83991000D01*
X128124586Y-83991000D01*
X128124000Y-83990414D01*
X128124000Y-83319586D01*
X128124586Y-83319000D01*
X128375414Y-83319000D01*
X128376000Y-83319586D01*
G37*
G36*
X132376000Y-79999586D02*
G01*
X132376000Y-80670414D01*
X132375414Y-80671000D01*
X132124586Y-80671000D01*
X132124000Y-80670414D01*
X132124000Y-79999586D01*
X132124586Y-79999000D01*
X132375414Y-79999000D01*
X132376000Y-79999586D01*
G37*
G36*
X132726000Y-82619586D02*
G01*
X132726000Y-82870414D01*
X132725414Y-82871000D01*
X132054586Y-82871000D01*
X132054000Y-82870414D01*
X132054000Y-82619586D01*
X132054586Y-82619000D01*
X132725414Y-82619000D01*
X132726000Y-82619586D01*
G37*
G36*
X128876000Y-79999586D02*
G01*
X128876000Y-80670414D01*
X128875414Y-80671000D01*
X128624586Y-80671000D01*
X128624000Y-80670414D01*
X128624000Y-79999586D01*
X128624586Y-79999000D01*
X128875414Y-79999000D01*
X128876000Y-79999586D01*
G37*
M02*
