%TF.GenerationSoftware,KiCad,Pcbnew,8.0.5*%
%TF.CreationDate,2025-04-03T13:13:55-04:00*%
%TF.ProjectId,BMX160-Interface,424d5831-3630-42d4-996e-746572666163,rev?*%
%TF.SameCoordinates,Original*%
%TF.FileFunction,Copper,L1,Top*%
%TF.FilePolarity,Positive*%
%FSLAX46Y46*%
G04 Gerber Fmt 4.6, Leading zero omitted, Abs format (unit mm)*
G04 Created by KiCad (PCBNEW 8.0.5) date 2025-04-03 13:13:55*
%MOMM*%
%LPD*%
G01*
G04 APERTURE LIST*
%TA.AperFunction,SMDPad,CuDef*%
%ADD10R,0.254000X0.838200*%
%TD*%
%TA.AperFunction,SMDPad,CuDef*%
%ADD11R,0.838200X0.254000*%
%TD*%
%TA.AperFunction,ViaPad*%
%ADD12C,0.508000*%
%TD*%
%TA.AperFunction,Conductor*%
%ADD13C,0.200000*%
%TD*%
%TA.AperFunction,Conductor*%
%ADD14C,0.152400*%
%TD*%
G04 APERTURE END LIST*
D10*
%TO.P,U1,14,SDX*%
%TO.N,/SDA*%
X129500001Y-80864300D03*
%TO.P,U1,13,SCX*%
%TO.N,/SCL*%
X130000000Y-80864300D03*
%TO.P,U1,12,CSB*%
%TO.N,+3V3*%
X130499999Y-80864300D03*
D11*
%TO.P,U1,8,VDD*%
X131385700Y-82750001D03*
D10*
%TO.P,U1,7,GND*%
%TO.N,GND*%
X130499999Y-83135700D03*
%TO.P,U1,6,GNDIO*%
X130000000Y-83135700D03*
%TO.P,U1,5,VDDIO*%
%TO.N,+3V3*%
X129500001Y-83135700D03*
D11*
%TO.P,U1,3,GND*%
%TO.N,GND*%
X128614300Y-82250000D03*
%TO.P,U1,2,GND*%
X128614300Y-81750000D03*
%TO.P,U1,1,SDO*%
X128614300Y-81249999D03*
%TD*%
D12*
%TO.N,+3V3*%
X131385700Y-82750001D03*
X130750000Y-80750000D03*
%TO.N,/SDA*%
X131629935Y-80696000D03*
%TO.N,/SCL*%
X131083400Y-81583400D03*
%TO.N,GND*%
X130250000Y-83135700D03*
%TO.N,+3V3*%
X128500000Y-82831002D03*
%TO.N,GND*%
X128614300Y-81750000D03*
%TD*%
D13*
%TO.N,+3V3*%
X130879399Y-82464200D02*
X129552401Y-82464200D01*
X130937000Y-82521801D02*
X130879399Y-82464200D01*
X131010001Y-82750001D02*
X130937000Y-82677000D01*
X130937000Y-82677000D02*
X130937000Y-82521801D01*
X131385700Y-82750001D02*
X131010001Y-82750001D01*
D14*
X130635700Y-80864300D02*
X130750000Y-80750000D01*
X130499999Y-80864300D02*
X130635700Y-80864300D01*
D13*
%TO.N,/SDA*%
X129500001Y-81576088D02*
X129500001Y-80864300D01*
X130873642Y-82089800D02*
X130719642Y-81935800D01*
X131293158Y-82089800D02*
X130873642Y-82089800D01*
X129859713Y-81935800D02*
X129500001Y-81576088D01*
X131637400Y-81745558D02*
X131293158Y-82089800D01*
X130719642Y-81935800D02*
X129859713Y-81935800D01*
X131637400Y-80703465D02*
X131637400Y-81745558D01*
X131629935Y-80696000D02*
X131637400Y-80703465D01*
D14*
%TO.N,/SCL*%
X131012000Y-81512000D02*
X131083400Y-81583400D01*
X130000000Y-81435800D02*
X130076200Y-81512000D01*
X130000000Y-80864300D02*
X130000000Y-81435800D01*
X130076200Y-81512000D02*
X131012000Y-81512000D01*
D13*
%TO.N,GND*%
X130250000Y-83135700D02*
X130499999Y-83135700D01*
X130000000Y-83135700D02*
X130250000Y-83135700D01*
%TO.N,+3V3*%
X128804698Y-83135700D02*
X128500000Y-82831002D01*
X129500001Y-83135700D02*
X128804698Y-83135700D01*
%TO.N,GND*%
X128614300Y-81750000D02*
X128614300Y-82250000D01*
X128614300Y-81249999D02*
X128614300Y-81750000D01*
%TO.N,+3V3*%
X129552401Y-82464200D02*
X129500001Y-82516600D01*
X129500001Y-82516600D02*
X129500001Y-83135700D01*
%TD*%
M02*
