%TF.GenerationSoftware,KiCad,Pcbnew,10.0.6*%
%TF.CreationDate,2026-08-31T22:08:09-04:00*%
%TF.ProjectId,Avionics-MainBoard,4176696f-6e69-4637-932d-4d61696e426f,rev?*%
%TF.SameCoordinates,Original*%
%TF.FileFunction,Soldermask,Bot*%
%TF.FilePolarity,Negative*%
%FSLAX46Y46*%
G04 Gerber Fmt 4.6, Leading zero omitted, Abs format (unit mm)*
G04 Created by KiCad (PCBNEW 10.0.6) date 2026-08-31 22:08:09*
%MOMM*%
%LPD*%
G01*
G04 APERTURE LIST*
G04 Aperture macros list*
%AMRoundRect*
0 Rectangle with rounded corners*
0 $1 Rounding radius*
0 $2 $3 $4 $5 $6 $7 $8 $9 X,Y pos of 4 corners*
0 Add a 4 corners polygon primitive as box body*
4,1,4,$2,$3,$4,$5,$6,$7,$8,$9,$2,$3,0*
0 Add four circle primitives for the rounded corners*
1,1,$1+$1,$2,$3*
1,1,$1+$1,$4,$5*
1,1,$1+$1,$6,$7*
1,1,$1+$1,$8,$9*
0 Add four rect primitives between the rounded corners*
20,1,$1+$1,$2,$3,$4,$5,0*
20,1,$1+$1,$4,$5,$6,$7,0*
20,1,$1+$1,$6,$7,$8,$9,0*
20,1,$1+$1,$8,$9,$2,$3,0*%
G04 Aperture macros list end*
%ADD10C,0.010000*%
%ADD11C,0.800000*%
%ADD12C,5.400000*%
%ADD13C,6.400000*%
%ADD14C,0.609600*%
%ADD15C,1.020000*%
%ADD16C,0.650000*%
%ADD17O,1.000000X2.100000*%
%ADD18O,1.000000X1.800000*%
%ADD19R,2.400000X2.200000*%
%ADD20O,2.400000X2.200000*%
%ADD21RoundRect,0.225000X-0.250000X0.225000X-0.250000X-0.225000X0.250000X-0.225000X0.250000X0.225000X0*%
%ADD22RoundRect,0.200000X0.275000X-0.200000X0.275000X0.200000X-0.275000X0.200000X-0.275000X-0.200000X0*%
%ADD23RoundRect,0.200000X-0.200000X-0.275000X0.200000X-0.275000X0.200000X0.275000X-0.200000X0.275000X0*%
%ADD24RoundRect,0.225000X-0.225000X-0.375000X0.225000X-0.375000X0.225000X0.375000X-0.225000X0.375000X0*%
%ADD25RoundRect,0.250000X0.475000X-0.250000X0.475000X0.250000X-0.475000X0.250000X-0.475000X-0.250000X0*%
%ADD26RoundRect,0.200000X-0.275000X0.200000X-0.275000X-0.200000X0.275000X-0.200000X0.275000X0.200000X0*%
%ADD27RoundRect,0.225000X0.225000X0.250000X-0.225000X0.250000X-0.225000X-0.250000X0.225000X-0.250000X0*%
%ADD28RoundRect,0.200000X0.200000X0.275000X-0.200000X0.275000X-0.200000X-0.275000X0.200000X-0.275000X0*%
%ADD29RoundRect,0.100000X-0.100000X0.300000X-0.100000X-0.300000X0.100000X-0.300000X0.100000X0.300000X0*%
%ADD30RoundRect,0.250000X0.250000X0.475000X-0.250000X0.475000X-0.250000X-0.475000X0.250000X-0.475000X0*%
%ADD31RoundRect,0.250000X-0.475000X0.250000X-0.475000X-0.250000X0.475000X-0.250000X0.475000X0.250000X0*%
%ADD32R,0.650000X0.350000*%
%ADD33R,1.000000X1.600000*%
%ADD34RoundRect,0.150000X-0.512500X-0.150000X0.512500X-0.150000X0.512500X0.150000X-0.512500X0.150000X0*%
%ADD35RoundRect,0.250000X1.100000X-0.325000X1.100000X0.325000X-1.100000X0.325000X-1.100000X-0.325000X0*%
%ADD36C,1.500000*%
%ADD37RoundRect,0.150000X0.150000X-0.587500X0.150000X0.587500X-0.150000X0.587500X-0.150000X-0.587500X0*%
%ADD38RoundRect,0.150000X0.512500X0.150000X-0.512500X0.150000X-0.512500X-0.150000X0.512500X-0.150000X0*%
%ADD39RoundRect,0.100000X0.100000X-0.300000X0.100000X0.300000X-0.100000X0.300000X-0.100000X-0.300000X0*%
%ADD40RoundRect,0.102000X-1.135000X0.139500X-1.135000X-0.139500X1.135000X-0.139500X1.135000X0.139500X0*%
%ADD41RoundRect,0.102000X-0.215000X1.270000X-0.215000X-1.270000X0.215000X-1.270000X0.215000X1.270000X0*%
%ADD42RoundRect,0.102000X-0.215000X2.350000X-0.215000X-2.350000X0.215000X-2.350000X0.215000X2.350000X0*%
%ADD43RoundRect,0.150000X0.587500X0.150000X-0.587500X0.150000X-0.587500X-0.150000X0.587500X-0.150000X0*%
%ADD44R,5.100000X2.500000*%
%ADD45C,10.200000*%
%ADD46RoundRect,0.218750X-0.218750X-0.256250X0.218750X-0.256250X0.218750X0.256250X-0.218750X0.256250X0*%
%ADD47RoundRect,0.102000X0.550000X1.650000X-0.550000X1.650000X-0.550000X-1.650000X0.550000X-1.650000X0*%
%ADD48RoundRect,0.225000X-0.225000X-0.250000X0.225000X-0.250000X0.225000X0.250000X-0.225000X0.250000X0*%
%ADD49RoundRect,0.225000X0.250000X-0.225000X0.250000X0.225000X-0.250000X0.225000X-0.250000X-0.225000X0*%
%ADD50RoundRect,0.250000X-1.100000X0.325000X-1.100000X-0.325000X1.100000X-0.325000X1.100000X0.325000X0*%
%ADD51RoundRect,0.218750X-0.256250X0.218750X-0.256250X-0.218750X0.256250X-0.218750X0.256250X0.218750X0*%
%ADD52RoundRect,0.102000X-0.250000X0.400000X-0.250000X-0.400000X0.250000X-0.400000X0.250000X0.400000X0*%
%ADD53RoundRect,0.250000X0.650000X-1.000000X0.650000X1.000000X-0.650000X1.000000X-0.650000X-1.000000X0*%
%ADD54RoundRect,0.087500X-0.087500X0.225000X-0.087500X-0.225000X0.087500X-0.225000X0.087500X0.225000X0*%
%ADD55RoundRect,0.087500X-0.225000X0.087500X-0.225000X-0.087500X0.225000X-0.087500X0.225000X0.087500X0*%
%ADD56RoundRect,0.150000X-0.587500X-0.150000X0.587500X-0.150000X0.587500X0.150000X-0.587500X0.150000X0*%
%ADD57RoundRect,0.250000X-0.300000X-0.475000X0.300000X-0.475000X0.300000X0.475000X-0.300000X0.475000X0*%
%ADD58RoundRect,0.250000X-0.425000X-1.200000X0.425000X-1.200000X0.425000X1.200000X-0.425000X1.200000X0*%
%ADD59RoundRect,0.112500X-0.350000X-0.112500X0.350000X-0.112500X0.350000X0.112500X-0.350000X0.112500X0*%
%ADD60RoundRect,0.150000X-0.150000X0.512500X-0.150000X-0.512500X0.150000X-0.512500X0.150000X0.512500X0*%
%ADD61R,2.500000X1.600000*%
%ADD62RoundRect,0.250000X-0.250000X-0.475000X0.250000X-0.475000X0.250000X0.475000X-0.250000X0.475000X0*%
%ADD63RoundRect,0.218750X0.218750X0.256250X-0.218750X0.256250X-0.218750X-0.256250X0.218750X-0.256250X0*%
%ADD64RoundRect,0.125000X0.125000X-0.537500X0.125000X0.537500X-0.125000X0.537500X-0.125000X-0.537500X0*%
%ADD65RoundRect,0.063500X0.406400X0.812800X-0.406400X0.812800X-0.406400X-0.812800X0.406400X-0.812800X0*%
%ADD66R,0.800000X2.000000*%
G04 APERTURE END LIST*
D10*
%TO.C,J12*%
X157670000Y-140535200D02*
X157670000Y-146785200D01*
X156370000Y-146785200D01*
X156370000Y-140285200D01*
X157420000Y-140285200D01*
X157420000Y-140298200D01*
X157421000Y-140311200D01*
X157423000Y-140324200D01*
X157425000Y-140337200D01*
X157429000Y-140350200D01*
X157432000Y-140362200D01*
X157437000Y-140375200D01*
X157442000Y-140387200D01*
X157447000Y-140398200D01*
X157453000Y-140410200D01*
X157460000Y-140421200D01*
X157468000Y-140432200D01*
X157476000Y-140442200D01*
X157484000Y-140452200D01*
X157493000Y-140462200D01*
X157503000Y-140471200D01*
X157513000Y-140479200D01*
X157523000Y-140487200D01*
X157534000Y-140495200D01*
X157545000Y-140502200D01*
X157557000Y-140508200D01*
X157568000Y-140513200D01*
X157580000Y-140518200D01*
X157593000Y-140523200D01*
X157605000Y-140526200D01*
X157618000Y-140530200D01*
X157631000Y-140532200D01*
X157644000Y-140534200D01*
X157657000Y-140535200D01*
X157670000Y-140535200D01*
G36*
X157420000Y-140298200D02*
G01*
X157421000Y-140311200D01*
X157423000Y-140324200D01*
X157425000Y-140337200D01*
X157429000Y-140350200D01*
X157432000Y-140362200D01*
X157437000Y-140375200D01*
X157442000Y-140387200D01*
X157447000Y-140398200D01*
X157453000Y-140410200D01*
X157460000Y-140421200D01*
X157468000Y-140432200D01*
X157476000Y-140442200D01*
X157484000Y-140452200D01*
X157493000Y-140462200D01*
X157503000Y-140471200D01*
X157513000Y-140479200D01*
X157523000Y-140487200D01*
X157534000Y-140495200D01*
X157545000Y-140502200D01*
X157557000Y-140508200D01*
X157568000Y-140513200D01*
X157580000Y-140518200D01*
X157593000Y-140523200D01*
X157605000Y-140526200D01*
X157618000Y-140530200D01*
X157631000Y-140532200D01*
X157644000Y-140534200D01*
X157657000Y-140535200D01*
X157670000Y-140535200D01*
X157670000Y-146785200D01*
X156370000Y-146785200D01*
X156370000Y-140285200D01*
X157420000Y-140285200D01*
X157420000Y-140298200D01*
G37*
X163670000Y-140285200D02*
X162620000Y-140285200D01*
X162620000Y-140280200D01*
X162620000Y-140285200D01*
X162620000Y-140298200D01*
X162619000Y-140311200D01*
X162617000Y-140324200D01*
X162615000Y-140337200D01*
X162611000Y-140350200D01*
X162608000Y-140362200D01*
X162603000Y-140375200D01*
X162598000Y-140387200D01*
X162593000Y-140398200D01*
X162587000Y-140410200D01*
X162580000Y-140421200D01*
X162572000Y-140432200D01*
X162564000Y-140442200D01*
X162556000Y-140452200D01*
X162547000Y-140462200D01*
X162537000Y-140471200D01*
X162527000Y-140479200D01*
X162517000Y-140487200D01*
X162506000Y-140495200D01*
X162495000Y-140502200D01*
X162483000Y-140508200D01*
X162472000Y-140513200D01*
X162460000Y-140518200D01*
X162447000Y-140523200D01*
X162435000Y-140526200D01*
X162422000Y-140530200D01*
X162409000Y-140532200D01*
X162396000Y-140534200D01*
X162383000Y-140535200D01*
X162370000Y-140535200D01*
X162370000Y-146785200D01*
X163670000Y-146785200D01*
X163670000Y-140285200D01*
G36*
X162620000Y-140285200D02*
G01*
X163670000Y-140285200D01*
X163670000Y-146785200D01*
X162370000Y-146785200D01*
X162370000Y-140535200D01*
X162383000Y-140535200D01*
X162396000Y-140534200D01*
X162409000Y-140532200D01*
X162422000Y-140530200D01*
X162435000Y-140526200D01*
X162447000Y-140523200D01*
X162460000Y-140518200D01*
X162472000Y-140513200D01*
X162483000Y-140508200D01*
X162495000Y-140502200D01*
X162506000Y-140495200D01*
X162517000Y-140487200D01*
X162527000Y-140479200D01*
X162537000Y-140471200D01*
X162547000Y-140462200D01*
X162556000Y-140452200D01*
X162564000Y-140442200D01*
X162572000Y-140432200D01*
X162580000Y-140421200D01*
X162587000Y-140410200D01*
X162593000Y-140398200D01*
X162598000Y-140387200D01*
X162603000Y-140375200D01*
X162608000Y-140362200D01*
X162611000Y-140350200D01*
X162615000Y-140337200D01*
X162617000Y-140324200D01*
X162619000Y-140311200D01*
X162620000Y-140298200D01*
X162620000Y-140285200D01*
G37*
%TO.C,J11*%
X142430000Y-140535200D02*
X142430000Y-146785200D01*
X141130000Y-146785200D01*
X141130000Y-140285200D01*
X142180000Y-140285200D01*
X142180000Y-140298200D01*
X142181000Y-140311200D01*
X142183000Y-140324200D01*
X142185000Y-140337200D01*
X142189000Y-140350200D01*
X142192000Y-140362200D01*
X142197000Y-140375200D01*
X142202000Y-140387200D01*
X142207000Y-140398200D01*
X142213000Y-140410200D01*
X142220000Y-140421200D01*
X142228000Y-140432200D01*
X142236000Y-140442200D01*
X142244000Y-140452200D01*
X142253000Y-140462200D01*
X142263000Y-140471200D01*
X142273000Y-140479200D01*
X142283000Y-140487200D01*
X142294000Y-140495200D01*
X142305000Y-140502200D01*
X142317000Y-140508200D01*
X142328000Y-140513200D01*
X142340000Y-140518200D01*
X142353000Y-140523200D01*
X142365000Y-140526200D01*
X142378000Y-140530200D01*
X142391000Y-140532200D01*
X142404000Y-140534200D01*
X142417000Y-140535200D01*
X142430000Y-140535200D01*
G36*
X142180000Y-140298200D02*
G01*
X142181000Y-140311200D01*
X142183000Y-140324200D01*
X142185000Y-140337200D01*
X142189000Y-140350200D01*
X142192000Y-140362200D01*
X142197000Y-140375200D01*
X142202000Y-140387200D01*
X142207000Y-140398200D01*
X142213000Y-140410200D01*
X142220000Y-140421200D01*
X142228000Y-140432200D01*
X142236000Y-140442200D01*
X142244000Y-140452200D01*
X142253000Y-140462200D01*
X142263000Y-140471200D01*
X142273000Y-140479200D01*
X142283000Y-140487200D01*
X142294000Y-140495200D01*
X142305000Y-140502200D01*
X142317000Y-140508200D01*
X142328000Y-140513200D01*
X142340000Y-140518200D01*
X142353000Y-140523200D01*
X142365000Y-140526200D01*
X142378000Y-140530200D01*
X142391000Y-140532200D01*
X142404000Y-140534200D01*
X142417000Y-140535200D01*
X142430000Y-140535200D01*
X142430000Y-146785200D01*
X141130000Y-146785200D01*
X141130000Y-140285200D01*
X142180000Y-140285200D01*
X142180000Y-140298200D01*
G37*
X148430000Y-140285200D02*
X147380000Y-140285200D01*
X147380000Y-140280200D01*
X147380000Y-140285200D01*
X147380000Y-140298200D01*
X147379000Y-140311200D01*
X147377000Y-140324200D01*
X147375000Y-140337200D01*
X147371000Y-140350200D01*
X147368000Y-140362200D01*
X147363000Y-140375200D01*
X147358000Y-140387200D01*
X147353000Y-140398200D01*
X147347000Y-140410200D01*
X147340000Y-140421200D01*
X147332000Y-140432200D01*
X147324000Y-140442200D01*
X147316000Y-140452200D01*
X147307000Y-140462200D01*
X147297000Y-140471200D01*
X147287000Y-140479200D01*
X147277000Y-140487200D01*
X147266000Y-140495200D01*
X147255000Y-140502200D01*
X147243000Y-140508200D01*
X147232000Y-140513200D01*
X147220000Y-140518200D01*
X147207000Y-140523200D01*
X147195000Y-140526200D01*
X147182000Y-140530200D01*
X147169000Y-140532200D01*
X147156000Y-140534200D01*
X147143000Y-140535200D01*
X147130000Y-140535200D01*
X147130000Y-146785200D01*
X148430000Y-146785200D01*
X148430000Y-140285200D01*
G36*
X147380000Y-140285200D02*
G01*
X148430000Y-140285200D01*
X148430000Y-146785200D01*
X147130000Y-146785200D01*
X147130000Y-140535200D01*
X147143000Y-140535200D01*
X147156000Y-140534200D01*
X147169000Y-140532200D01*
X147182000Y-140530200D01*
X147195000Y-140526200D01*
X147207000Y-140523200D01*
X147220000Y-140518200D01*
X147232000Y-140513200D01*
X147243000Y-140508200D01*
X147255000Y-140502200D01*
X147266000Y-140495200D01*
X147277000Y-140487200D01*
X147287000Y-140479200D01*
X147297000Y-140471200D01*
X147307000Y-140462200D01*
X147316000Y-140452200D01*
X147324000Y-140442200D01*
X147332000Y-140432200D01*
X147340000Y-140421200D01*
X147347000Y-140410200D01*
X147353000Y-140398200D01*
X147358000Y-140387200D01*
X147363000Y-140375200D01*
X147368000Y-140362200D01*
X147371000Y-140350200D01*
X147375000Y-140337200D01*
X147377000Y-140324200D01*
X147379000Y-140311200D01*
X147380000Y-140298200D01*
X147380000Y-140285200D01*
G37*
%TD*%
D11*
%TO.C,H6*%
X184030000Y-86360000D03*
X184623109Y-84928109D03*
X184623109Y-87791891D03*
X186055000Y-84335000D03*
D12*
X186055000Y-86360000D03*
D11*
X186055000Y-88385000D03*
X187486891Y-84928109D03*
X187486891Y-87791891D03*
X188080000Y-86360000D03*
%TD*%
%TO.C,H3*%
X190995000Y-144462500D03*
X190292056Y-146159556D03*
X190292056Y-142765444D03*
X188595000Y-146862500D03*
D13*
X188595000Y-144462500D03*
D11*
X188595000Y-142062500D03*
X186897944Y-146159556D03*
X186897944Y-142765444D03*
X186195000Y-144462500D03*
%TD*%
D14*
%TO.C,U1*%
X133283467Y-84388467D03*
X133283467Y-85521800D03*
X133283467Y-86655133D03*
X134416800Y-84388467D03*
X134416800Y-85521800D03*
X134416800Y-86655133D03*
X135550133Y-84388467D03*
X135550133Y-85521800D03*
X135550133Y-86655133D03*
%TD*%
D11*
%TO.C,H5*%
X184030000Y-116840000D03*
X184623109Y-115408109D03*
X184623109Y-118271891D03*
X186055000Y-114815000D03*
D12*
X186055000Y-116840000D03*
D11*
X186055000Y-118865000D03*
X187486891Y-115408109D03*
X187486891Y-118271891D03*
X188080000Y-116840000D03*
%TD*%
%TO.C,H2*%
X186195000Y-58737500D03*
X186897944Y-57040444D03*
X186897944Y-60434556D03*
X188595000Y-56337500D03*
D13*
X188595000Y-58737500D03*
D11*
X188595000Y-61137500D03*
X190292056Y-57040444D03*
X190292056Y-60434556D03*
X190995000Y-58737500D03*
%TD*%
D15*
%TO.C,J15*%
X188085000Y-92360000D03*
X188085000Y-110840000D03*
%TD*%
D11*
%TO.C,H1*%
X113805000Y-58737500D03*
X114507944Y-57040444D03*
X114507944Y-60434556D03*
X116205000Y-56337500D03*
D13*
X116205000Y-58737500D03*
D11*
X116205000Y-61137500D03*
X117902056Y-57040444D03*
X117902056Y-60434556D03*
X118605000Y-58737500D03*
%TD*%
D16*
%TO.C,J1*%
X155290000Y-63184000D03*
X149510000Y-63184000D03*
D17*
X156720000Y-63684000D03*
D18*
X156720000Y-59504000D03*
D17*
X148080000Y-63684000D03*
D18*
X148080000Y-59504000D03*
%TD*%
D11*
%TO.C,H4*%
X118605000Y-144462500D03*
X117902056Y-146159556D03*
X117902056Y-142765444D03*
X116205000Y-146862500D03*
D13*
X116205000Y-144462500D03*
D11*
X116205000Y-142062500D03*
X114507944Y-146159556D03*
X114507944Y-142765444D03*
X113805000Y-144462500D03*
%TD*%
D19*
%TO.C,J10*%
X193192400Y-79756000D03*
D20*
X193192400Y-77216001D03*
X193192400Y-74675999D03*
X193192400Y-72136000D03*
%TD*%
D21*
%TO.C,C66*%
X173228000Y-114807400D03*
X173228000Y-116357400D03*
%TD*%
D22*
%TO.C,R72*%
X181203600Y-66026800D03*
X181203600Y-64376800D03*
%TD*%
D23*
%TO.C,R181*%
X145656800Y-95986600D03*
X147306800Y-95986600D03*
%TD*%
D24*
%TO.C,D6*%
X182093600Y-68046600D03*
X185393600Y-68046600D03*
%TD*%
D25*
%TO.C,C12*%
X137144632Y-83719199D03*
X137144632Y-81819201D03*
%TD*%
D23*
%TO.C,R14*%
X115837200Y-86917500D03*
X117487200Y-86917500D03*
%TD*%
D26*
%TO.C,R52*%
X163093400Y-88202000D03*
X163093400Y-89852000D03*
%TD*%
D27*
%TO.C,C88*%
X153175000Y-104267000D03*
X151625000Y-104267000D03*
%TD*%
D23*
%TO.C,R9*%
X122923802Y-84707700D03*
X124573802Y-84707700D03*
%TD*%
D28*
%TO.C,R138*%
X141134600Y-63931800D03*
X139484600Y-63931800D03*
%TD*%
D26*
%TO.C,R75*%
X191998599Y-64376800D03*
X191998599Y-66026800D03*
%TD*%
D28*
%TO.C,R15*%
X117487199Y-88390699D03*
X115837199Y-88390699D03*
%TD*%
D29*
%TO.C,Q22*%
X153629600Y-72761600D03*
X154279600Y-72761600D03*
X154929599Y-72761600D03*
X154929599Y-74761600D03*
X154279600Y-74761600D03*
X153629600Y-74761600D03*
%TD*%
D28*
%TO.C,R176*%
X153225000Y-105740200D03*
X151575000Y-105740200D03*
%TD*%
D30*
%TO.C,C67*%
X171802599Y-119460600D03*
X169902601Y-119460600D03*
%TD*%
D29*
%TO.C,Q21*%
X153629599Y-77536800D03*
X154279599Y-77536800D03*
X154929598Y-77536800D03*
X154929598Y-79536800D03*
X154279599Y-79536800D03*
X153629599Y-79536800D03*
%TD*%
D28*
%TO.C,R46*%
X175069000Y-69164200D03*
X173419000Y-69164200D03*
%TD*%
%TO.C,R59*%
X169100000Y-86639400D03*
X167450000Y-86639400D03*
%TD*%
%TO.C,R148*%
X157695399Y-76149200D03*
X156045399Y-76149200D03*
%TD*%
D31*
%TO.C,C85*%
X154635200Y-89103200D03*
X154635200Y-91003198D03*
%TD*%
D22*
%TO.C,R147*%
X148691599Y-79361800D03*
X148691599Y-77711800D03*
%TD*%
%TO.C,R140*%
X137769600Y-69760600D03*
X137769600Y-68110600D03*
%TD*%
D28*
%TO.C,R68*%
X175069000Y-88214200D03*
X173419000Y-88214200D03*
%TD*%
D21*
%TO.C,C87*%
X154863800Y-100825000D03*
X154863800Y-102375000D03*
%TD*%
D26*
%TO.C,R123*%
X162509200Y-118123200D03*
X162509200Y-119773200D03*
%TD*%
D22*
%TO.C,R74*%
X188315599Y-66026800D03*
X188315599Y-64376800D03*
%TD*%
D28*
%TO.C,R12*%
X120738401Y-84785200D03*
X119088401Y-84785200D03*
%TD*%
D26*
%TO.C,R38*%
X173482000Y-64376800D03*
X173482000Y-66026800D03*
%TD*%
D28*
%TO.C,R110*%
X147306801Y-121107200D03*
X145656801Y-121107200D03*
%TD*%
%TO.C,R62*%
X166128200Y-85064600D03*
X164478200Y-85064600D03*
%TD*%
D23*
%TO.C,R43*%
X170447200Y-67589400D03*
X172097200Y-67589400D03*
%TD*%
D22*
%TO.C,R98*%
X169773600Y-104126800D03*
X169773600Y-102476800D03*
%TD*%
D32*
%TO.C,U14*%
X169801600Y-116323600D03*
X169801600Y-115671600D03*
X169801600Y-115021600D03*
X171902600Y-115021600D03*
X171902600Y-115671600D03*
X171902600Y-116323600D03*
D33*
X170852600Y-115671600D03*
%TD*%
D34*
%TO.C,U5*%
X163429100Y-76972200D03*
X163429100Y-76022200D03*
X163429100Y-75072200D03*
X165704100Y-75072200D03*
X165704100Y-76022200D03*
X165704100Y-76972200D03*
%TD*%
D35*
%TO.C,C27*%
X188899800Y-77421001D03*
X188899800Y-74470999D03*
%TD*%
D36*
%TO.C,TP3*%
X161036000Y-113817400D03*
%TD*%
D23*
%TO.C,R10*%
X122923801Y-90422700D03*
X124573801Y-90422700D03*
%TD*%
D29*
%TO.C,Q4*%
X171003200Y-64201800D03*
X171653200Y-64201800D03*
X172303199Y-64201800D03*
X172303199Y-66201800D03*
X171653200Y-66201800D03*
X171003200Y-66201800D03*
%TD*%
D37*
%TO.C,Q18*%
X147431801Y-116431300D03*
X145531801Y-116431300D03*
X146481801Y-114556300D03*
%TD*%
D35*
%TO.C,C64*%
X113461800Y-107774001D03*
X113461800Y-104823999D03*
%TD*%
D38*
%TO.C,U21*%
X152597700Y-89103199D03*
X152597700Y-90053199D03*
X152597700Y-91003199D03*
X150322700Y-91003199D03*
X150322700Y-90053199D03*
X150322700Y-89103199D03*
%TD*%
D28*
%TO.C,R108*%
X147306801Y-109880400D03*
X145656801Y-109880400D03*
%TD*%
D21*
%TO.C,C33*%
X174929800Y-76976201D03*
X174929800Y-78526201D03*
%TD*%
D27*
%TO.C,C25*%
X120688400Y-86257100D03*
X119138400Y-86257100D03*
%TD*%
D39*
%TO.C,Q16*%
X168544000Y-109077000D03*
X167894000Y-109077000D03*
X167244001Y-109077000D03*
X167244001Y-107077000D03*
X167894000Y-107077000D03*
X168544000Y-107077000D03*
%TD*%
D36*
%TO.C,TP8*%
X130352800Y-76555600D03*
%TD*%
D15*
%TO.C,J14*%
X183385000Y-91535000D03*
X183385000Y-111665000D03*
D40*
X188920000Y-94350000D03*
X183190000Y-94350000D03*
X188920000Y-94850000D03*
X183190000Y-94850000D03*
X188920000Y-95350001D03*
X183190000Y-95350001D03*
X188920000Y-95850000D03*
X183190000Y-95850000D03*
X188920000Y-96349999D03*
X183190000Y-96349999D03*
X188920000Y-96850000D03*
X183190000Y-96850000D03*
X188920000Y-97350000D03*
X183190000Y-97350000D03*
X188919999Y-97850000D03*
X183190001Y-97850000D03*
X188920000Y-98350000D03*
X183190000Y-98350000D03*
X188920000Y-98850000D03*
X183190000Y-98850000D03*
X188920000Y-99350000D03*
X183190000Y-99350000D03*
X188920000Y-99850000D03*
X183190000Y-99850000D03*
X188919999Y-100350000D03*
X183190001Y-100350000D03*
X188920000Y-100850000D03*
X183190000Y-100850000D03*
X188920000Y-101350000D03*
X183190000Y-101350000D03*
X188920000Y-101850000D03*
X183190000Y-101850000D03*
X188920000Y-102350000D03*
X183190000Y-102350000D03*
X188919999Y-102850000D03*
X183190001Y-102850000D03*
X188920000Y-103350000D03*
X183190000Y-103350000D03*
X188920000Y-103850000D03*
X183190000Y-103850000D03*
X188920000Y-104350000D03*
X183190000Y-104350000D03*
X188920000Y-104850000D03*
X183190000Y-104850000D03*
X188919999Y-105350000D03*
X183190001Y-105350000D03*
X188920000Y-105850000D03*
X183190000Y-105850000D03*
X188920000Y-106350000D03*
X183190000Y-106350000D03*
X188920000Y-106850001D03*
X183190000Y-106850001D03*
X188920000Y-107350000D03*
X183190000Y-107350000D03*
X188920000Y-107849999D03*
X183190000Y-107849999D03*
X188920000Y-108350000D03*
X183190000Y-108350000D03*
X188920000Y-108850000D03*
X183190000Y-108850000D03*
D41*
X186055000Y-93535000D03*
D42*
X186055000Y-98425000D03*
X186055000Y-104775000D03*
D41*
X186055000Y-109665000D03*
%TD*%
D22*
%TO.C,R64*%
X164566601Y-89852000D03*
X164566601Y-88202000D03*
%TD*%
D28*
%TO.C,R139*%
X141134600Y-62458600D03*
X139484600Y-62458600D03*
%TD*%
D27*
%TO.C,C80*%
X148704600Y-73025001D03*
X147154600Y-73025001D03*
%TD*%
D26*
%TO.C,R122*%
X161036000Y-118123200D03*
X161036000Y-119773200D03*
%TD*%
%TO.C,R93*%
X174980600Y-102476800D03*
X174980600Y-104126800D03*
%TD*%
D31*
%TO.C,C65*%
X174955200Y-114432002D03*
X174955200Y-116332000D03*
%TD*%
D29*
%TO.C,Q12*%
X182382399Y-64201800D03*
X183032399Y-64201800D03*
X183682398Y-64201800D03*
X183682398Y-66201800D03*
X183032399Y-66201800D03*
X182382399Y-66201800D03*
%TD*%
D23*
%TO.C,R171*%
X150635200Y-87513199D03*
X152285200Y-87513199D03*
%TD*%
D22*
%TO.C,R41*%
X169773599Y-66026800D03*
X169773599Y-64376800D03*
%TD*%
D29*
%TO.C,Q14*%
X171003200Y-102301800D03*
X171653200Y-102301800D03*
X172303199Y-102301800D03*
X172303199Y-104301800D03*
X171653200Y-104301800D03*
X171003200Y-104301800D03*
%TD*%
D39*
%TO.C,Q5*%
X168544000Y-66201799D03*
X167894000Y-66201799D03*
X167244001Y-66201799D03*
X167244001Y-64201799D03*
X167894000Y-64201799D03*
X168544000Y-64201799D03*
%TD*%
D27*
%TO.C,C40*%
X166078200Y-64465200D03*
X164528200Y-64465200D03*
%TD*%
D43*
%TO.C,Q3*%
X165504101Y-78475800D03*
X165504101Y-80375800D03*
X163629101Y-79425800D03*
%TD*%
D23*
%TO.C,R178*%
X145656799Y-97459799D03*
X147306799Y-97459799D03*
%TD*%
D28*
%TO.C,R94*%
X169100000Y-105689400D03*
X167450000Y-105689400D03*
%TD*%
D23*
%TO.C,R97*%
X164478200Y-104114600D03*
X166128200Y-104114600D03*
%TD*%
D22*
%TO.C,R71*%
X186842399Y-66026800D03*
X186842399Y-64376800D03*
%TD*%
D39*
%TO.C,Q9*%
X168544000Y-85251800D03*
X167894000Y-85251800D03*
X167244001Y-85251800D03*
X167244001Y-83251800D03*
X167894000Y-83251800D03*
X168544000Y-83251800D03*
%TD*%
D23*
%TO.C,R61*%
X164478200Y-86639400D03*
X166128200Y-86639400D03*
%TD*%
%TO.C,R13*%
X115837199Y-89863900D03*
X117487199Y-89863900D03*
%TD*%
D21*
%TO.C,C78*%
X130530600Y-71157800D03*
X130530600Y-72707800D03*
%TD*%
D23*
%TO.C,R103*%
X173419000Y-107264200D03*
X175069000Y-107264200D03*
%TD*%
D22*
%TO.C,R144*%
X134950200Y-69760600D03*
X134950200Y-68110600D03*
%TD*%
D21*
%TO.C,C29*%
X161620200Y-75247200D03*
X161620200Y-76797200D03*
%TD*%
D23*
%TO.C,R186*%
X170726600Y-136702800D03*
X172376600Y-136702800D03*
%TD*%
D28*
%TO.C,R107*%
X114109000Y-112826800D03*
X112459000Y-112826800D03*
%TD*%
D21*
%TO.C,C1*%
X135442832Y-81791000D03*
X135442832Y-83341000D03*
%TD*%
D22*
%TO.C,R156*%
X152400000Y-74586600D03*
X152400000Y-72936600D03*
%TD*%
D29*
%TO.C,Q11*%
X171003200Y-88026999D03*
X171653200Y-88026999D03*
X172303199Y-88026999D03*
X172303199Y-90026999D03*
X171653200Y-90026999D03*
X171003200Y-90026999D03*
%TD*%
D23*
%TO.C,R40*%
X164478200Y-66014600D03*
X166128200Y-66014600D03*
%TD*%
D22*
%TO.C,R42*%
X164566599Y-70802000D03*
X164566599Y-69152000D03*
%TD*%
D26*
%TO.C,R125*%
X159562800Y-118123200D03*
X159562800Y-119773200D03*
%TD*%
D39*
%TO.C,Q10*%
X168544000Y-90027000D03*
X167894000Y-90027000D03*
X167244001Y-90027000D03*
X167244001Y-88027000D03*
X167894000Y-88027000D03*
X168544000Y-88027000D03*
%TD*%
D44*
%TO.C,BT2*%
X121970800Y-79532801D03*
X121970800Y-64332799D03*
D45*
X121970800Y-71932800D03*
%TD*%
D46*
%TO.C,D18*%
X151612499Y-95986599D03*
X153187501Y-95986599D03*
%TD*%
D23*
%TO.C,R118*%
X157188400Y-113817400D03*
X158838400Y-113817400D03*
%TD*%
D28*
%TO.C,R45*%
X175069000Y-67589400D03*
X173419000Y-67589400D03*
%TD*%
D23*
%TO.C,R117*%
X170027600Y-117754400D03*
X171677600Y-117754400D03*
%TD*%
D47*
%TO.C,J12*%
X160020000Y-138735200D03*
%TD*%
D48*
%TO.C,C49*%
X173469000Y-89763600D03*
X175019000Y-89763600D03*
%TD*%
D49*
%TO.C,C16*%
X135011032Y-89183000D03*
X135011032Y-87633000D03*
%TD*%
D47*
%TO.C,J11*%
X144780000Y-138735200D03*
%TD*%
D26*
%TO.C,R151*%
X157607000Y-72936600D03*
X157607000Y-74586600D03*
%TD*%
%TO.C,R36*%
X174980599Y-64376800D03*
X174980599Y-66026800D03*
%TD*%
D28*
%TO.C,R180*%
X147306800Y-102793800D03*
X145656800Y-102793800D03*
%TD*%
D22*
%TO.C,R145*%
X147192999Y-79361800D03*
X147192999Y-77711800D03*
%TD*%
%TO.C,R73*%
X193471799Y-66026800D03*
X193471799Y-64376800D03*
%TD*%
%TO.C,R115*%
X176682400Y-117982000D03*
X176682400Y-116332000D03*
%TD*%
D39*
%TO.C,Q23*%
X151170400Y-74761600D03*
X150520400Y-74761600D03*
X149870401Y-74761600D03*
X149870401Y-72761600D03*
X150520400Y-72761600D03*
X151170400Y-72761600D03*
%TD*%
D23*
%TO.C,R96*%
X164478200Y-105689400D03*
X166128200Y-105689400D03*
%TD*%
D50*
%TO.C,C23*%
X121742202Y-92706899D03*
X121742202Y-95656901D03*
%TD*%
D28*
%TO.C,R173*%
X153225000Y-97459800D03*
X151575000Y-97459800D03*
%TD*%
D35*
%TO.C,C32*%
X172592999Y-80039002D03*
X172592999Y-77089000D03*
%TD*%
D23*
%TO.C,R146*%
X153073601Y-76149201D03*
X154723601Y-76149201D03*
%TD*%
D22*
%TO.C,R142*%
X133502400Y-77380600D03*
X133502400Y-75730600D03*
%TD*%
D51*
%TO.C,D16*%
X134975600Y-75768099D03*
X134975600Y-77343101D03*
%TD*%
D39*
%TO.C,Q13*%
X190811000Y-66201800D03*
X190161000Y-66201800D03*
X189511001Y-66201800D03*
X189511001Y-64201800D03*
X190161000Y-64201800D03*
X190811000Y-64201800D03*
%TD*%
D26*
%TO.C,R21*%
X161645600Y-78600800D03*
X161645600Y-80250800D03*
%TD*%
D28*
%TO.C,R172*%
X152285200Y-92593199D03*
X150635200Y-92593199D03*
%TD*%
%TO.C,R120*%
X168465000Y-115290600D03*
X166815000Y-115290600D03*
%TD*%
D27*
%TO.C,C61*%
X166078200Y-102565200D03*
X164528200Y-102565200D03*
%TD*%
D52*
%TO.C,U18*%
X131974600Y-71332800D03*
X132874600Y-71332800D03*
X133774600Y-71332800D03*
X134674600Y-71332800D03*
X134674600Y-72532800D03*
X133774600Y-72532800D03*
X132874600Y-72532800D03*
X131974600Y-72532800D03*
%TD*%
D23*
%TO.C,R113*%
X145656801Y-118160800D03*
X147306801Y-118160800D03*
%TD*%
D35*
%TO.C,C28*%
X185689800Y-77421001D03*
X185689800Y-74470999D03*
%TD*%
D29*
%TO.C,Q8*%
X171003200Y-83251800D03*
X171653200Y-83251800D03*
X172303199Y-83251800D03*
X172303199Y-85251800D03*
X171653200Y-85251800D03*
X171003200Y-85251800D03*
%TD*%
D48*
%TO.C,C77*%
X133464000Y-74193400D03*
X135014000Y-74193400D03*
%TD*%
D22*
%TO.C,R44*%
X166065201Y-70802000D03*
X166065201Y-69152000D03*
%TD*%
D28*
%TO.C,R106*%
X114109000Y-110286800D03*
X112459000Y-110286800D03*
%TD*%
D53*
%TO.C,D3*%
X182321200Y-77971401D03*
X182321200Y-73971399D03*
%TD*%
D22*
%TO.C,R170*%
X157937200Y-90649599D03*
X157937200Y-88999599D03*
%TD*%
%TO.C,R184*%
X146583400Y-90880700D03*
X146583400Y-89230700D03*
%TD*%
D21*
%TO.C,C24*%
X118897401Y-92594100D03*
X118897401Y-94144100D03*
%TD*%
%TO.C,C3*%
X132496432Y-81791000D03*
X132496432Y-83341000D03*
%TD*%
D28*
%TO.C,R114*%
X147306801Y-111353600D03*
X145656801Y-111353600D03*
%TD*%
D54*
%TO.C,U22*%
X151650000Y-100437499D03*
X152150000Y-100437500D03*
X152650000Y-100437500D03*
X153150000Y-100437499D03*
D55*
X153312500Y-101100001D03*
X153312500Y-101600000D03*
X153312500Y-102099999D03*
D54*
X153150000Y-102762501D03*
X152650000Y-102762500D03*
X152150000Y-102762500D03*
X151650000Y-102762501D03*
D55*
X151487500Y-102099999D03*
X151487500Y-101600000D03*
X151487500Y-101100001D03*
%TD*%
D56*
%TO.C,Q1*%
X122938302Y-88515200D03*
X122938302Y-86615200D03*
X124813302Y-87565200D03*
%TD*%
D39*
%TO.C,Q6*%
X168544000Y-70977001D03*
X167894000Y-70977001D03*
X167244001Y-70977001D03*
X167244001Y-68977001D03*
X167894000Y-68977001D03*
X168544000Y-68977001D03*
%TD*%
D26*
%TO.C,R153*%
X156108401Y-72936600D03*
X156108401Y-74586600D03*
%TD*%
D28*
%TO.C,R67*%
X175069000Y-86639400D03*
X173419000Y-86639400D03*
%TD*%
D57*
%TO.C,J2*%
X149400000Y-67693120D03*
X151400000Y-67693120D03*
X153400000Y-67693120D03*
X155400000Y-67693120D03*
D58*
X146505000Y-61698120D03*
X158295000Y-61698120D03*
%TD*%
D23*
%TO.C,R154*%
X147104600Y-76149200D03*
X148754600Y-76149200D03*
%TD*%
D26*
%TO.C,R95*%
X173482000Y-102476800D03*
X173482000Y-104126800D03*
%TD*%
%TO.C,R58*%
X174980600Y-83426800D03*
X174980600Y-85076800D03*
%TD*%
D22*
%TO.C,R99*%
X164566600Y-108902000D03*
X164566600Y-107252000D03*
%TD*%
D59*
%TO.C,D14*%
X179071500Y-124983000D03*
X179071500Y-123683000D03*
X180846500Y-124333000D03*
%TD*%
D22*
%TO.C,R22*%
X167995600Y-61150000D03*
X167995600Y-59500000D03*
%TD*%
D26*
%TO.C,R143*%
X133477000Y-68110600D03*
X133477000Y-69760600D03*
%TD*%
D23*
%TO.C,R121*%
X166840400Y-118211600D03*
X168490400Y-118211600D03*
%TD*%
%TO.C,R112*%
X145656801Y-119634000D03*
X147306801Y-119634000D03*
%TD*%
%TO.C,R177*%
X145656800Y-105740200D03*
X147306800Y-105740200D03*
%TD*%
D28*
%TO.C,R111*%
X147306801Y-112826800D03*
X145656801Y-112826800D03*
%TD*%
D60*
%TO.C,U17*%
X139359600Y-67798100D03*
X140309599Y-67798100D03*
X141259598Y-67798100D03*
X141259598Y-70073100D03*
X140309599Y-70073100D03*
X139359600Y-70073100D03*
%TD*%
D61*
%TO.C,U13*%
X117540000Y-130546000D03*
X117540000Y-128006000D03*
X117540000Y-125466000D03*
X117540000Y-117866000D03*
X117540000Y-115326000D03*
X117540000Y-112786000D03*
X117540000Y-110246000D03*
X117540000Y-107706000D03*
X117540000Y-105166000D03*
X117540000Y-102626000D03*
X117540000Y-100086000D03*
X141540000Y-100086000D03*
X141540000Y-102626000D03*
X141540000Y-105166000D03*
X141540000Y-107706000D03*
X141540000Y-110246000D03*
X141540000Y-112786000D03*
X141540000Y-115326000D03*
X141540000Y-117866000D03*
X141540000Y-125466000D03*
X141540000Y-128006000D03*
X141540000Y-130546000D03*
%TD*%
D26*
%TO.C,R150*%
X152399999Y-77711800D03*
X152399999Y-79361800D03*
%TD*%
D29*
%TO.C,Q7*%
X171003200Y-68977000D03*
X171653200Y-68977000D03*
X172303199Y-68977000D03*
X172303199Y-70977000D03*
X171653200Y-70977000D03*
X171003200Y-70977000D03*
%TD*%
D35*
%TO.C,C31*%
X169392600Y-80039002D03*
X169392600Y-77089000D03*
%TD*%
D22*
%TO.C,R101*%
X166065200Y-108902000D03*
X166065200Y-107252000D03*
%TD*%
D23*
%TO.C,R39*%
X164478200Y-67589400D03*
X166128200Y-67589400D03*
%TD*%
D28*
%TO.C,R119*%
X171677600Y-113614200D03*
X170027600Y-113614200D03*
%TD*%
D62*
%TO.C,C75*%
X139359600Y-65760600D03*
X141259598Y-65760600D03*
%TD*%
%TO.C,C76*%
X139359600Y-72110600D03*
X141259598Y-72110600D03*
%TD*%
D48*
%TO.C,C41*%
X173469000Y-70713599D03*
X175019000Y-70713599D03*
%TD*%
D22*
%TO.C,R70*%
X179730401Y-66026800D03*
X179730401Y-64376800D03*
%TD*%
D26*
%TO.C,R47*%
X169773599Y-69152000D03*
X169773599Y-70802000D03*
%TD*%
%TO.C,R141*%
X142849599Y-68110600D03*
X142849599Y-69760600D03*
%TD*%
D25*
%TO.C,C50*%
X185115199Y-66151799D03*
X185115199Y-64251801D03*
%TD*%
D31*
%TO.C,C86*%
X148285200Y-89103200D03*
X148285200Y-91003198D03*
%TD*%
D63*
%TO.C,D13*%
X168452901Y-119684800D03*
X166877899Y-119684800D03*
%TD*%
D39*
%TO.C,Q15*%
X168544000Y-104301800D03*
X167894000Y-104301800D03*
X167244001Y-104301800D03*
X167244001Y-102301800D03*
X167894000Y-102301800D03*
X168544000Y-102301800D03*
%TD*%
D48*
%TO.C,C62*%
X173469000Y-108813600D03*
X175019000Y-108813600D03*
%TD*%
D49*
%TO.C,C6*%
X132267832Y-89183000D03*
X132267832Y-87633000D03*
%TD*%
D26*
%TO.C,R30*%
X163093400Y-69152000D03*
X163093400Y-70802000D03*
%TD*%
D21*
%TO.C,C2*%
X133969632Y-81791000D03*
X133969632Y-83341000D03*
%TD*%
D39*
%TO.C,Q20*%
X151170399Y-79536800D03*
X150520399Y-79536800D03*
X149870400Y-79536800D03*
X149870400Y-77536800D03*
X150520399Y-77536800D03*
X151170399Y-77536800D03*
%TD*%
D48*
%TO.C,C79*%
X156095399Y-79273400D03*
X157645399Y-79273400D03*
%TD*%
D26*
%TO.C,R87*%
X163093400Y-107252000D03*
X163093400Y-108902000D03*
%TD*%
D64*
%TO.C,U4*%
X120888400Y-90266100D03*
X120238400Y-90266100D03*
X119588400Y-90266100D03*
X118938400Y-90266100D03*
X118938400Y-87991100D03*
X119588400Y-87991100D03*
X120238400Y-87991100D03*
X120888400Y-87991100D03*
%TD*%
D22*
%TO.C,R169*%
X156464000Y-90649599D03*
X156464000Y-88999599D03*
%TD*%
D23*
%TO.C,R100*%
X170447200Y-105689400D03*
X172097200Y-105689400D03*
%TD*%
%TO.C,R124*%
X179134000Y-126238001D03*
X180784000Y-126238001D03*
%TD*%
D27*
%TO.C,C48*%
X166078200Y-83515199D03*
X164528200Y-83515199D03*
%TD*%
D28*
%TO.C,R109*%
X147306801Y-122580400D03*
X145656801Y-122580400D03*
%TD*%
%TO.C,R102*%
X175069000Y-105689400D03*
X173419000Y-105689400D03*
%TD*%
D26*
%TO.C,R31*%
X161620200Y-69152000D03*
X161620200Y-70802000D03*
%TD*%
%TO.C,R88*%
X161620200Y-107252000D03*
X161620200Y-108902000D03*
%TD*%
D22*
%TO.C,R63*%
X169773600Y-85076800D03*
X169773600Y-83426800D03*
%TD*%
%TO.C,R66*%
X166065200Y-89852000D03*
X166065200Y-88202000D03*
%TD*%
D23*
%TO.C,R65*%
X170447200Y-86639400D03*
X172097200Y-86639400D03*
%TD*%
D28*
%TO.C,R185*%
X141134600Y-73812400D03*
X139484600Y-73812400D03*
%TD*%
D65*
%TO.C,U15*%
X172920000Y-134805800D03*
X171820000Y-134805800D03*
X170720000Y-134805800D03*
X169620000Y-134805800D03*
X168520000Y-134805800D03*
X167420000Y-134805800D03*
X166320000Y-134805800D03*
X163320000Y-134805800D03*
X162220000Y-134805800D03*
X161120000Y-134805800D03*
X160020000Y-134805800D03*
X158920000Y-134805800D03*
X158920000Y-122605800D03*
X160020000Y-122605800D03*
X161120000Y-122605800D03*
X162220000Y-122605800D03*
X163320001Y-122605800D03*
X166320000Y-122605800D03*
X167419999Y-122605800D03*
X168520000Y-122605800D03*
X169620000Y-122605800D03*
X170720000Y-122605800D03*
X171820000Y-122605800D03*
X172920000Y-122605800D03*
%TD*%
D26*
%TO.C,R116*%
X176682400Y-113360200D03*
X176682400Y-115010200D03*
%TD*%
D48*
%TO.C,C68*%
X179184000Y-127711200D03*
X180734000Y-127711200D03*
%TD*%
D23*
%TO.C,R155*%
X147104600Y-74574400D03*
X148754600Y-74574400D03*
%TD*%
D28*
%TO.C,R174*%
X147306799Y-107213400D03*
X145656799Y-107213400D03*
%TD*%
%TO.C,R37*%
X169100000Y-67589400D03*
X167450000Y-67589400D03*
%TD*%
%TO.C,R149*%
X157695400Y-77724000D03*
X156045400Y-77724000D03*
%TD*%
D37*
%TO.C,Q25*%
X147431800Y-101064299D03*
X145531800Y-101064299D03*
X146481800Y-99189298D03*
%TD*%
D50*
%TO.C,C63*%
X113461800Y-99515400D03*
X113461800Y-102465400D03*
%TD*%
D22*
%TO.C,R182*%
X178257201Y-66026800D03*
X178257201Y-64376800D03*
%TD*%
D26*
%TO.C,R104*%
X169773600Y-107252000D03*
X169773600Y-108902000D03*
%TD*%
%TO.C,R53*%
X161620200Y-88202000D03*
X161620200Y-89852000D03*
%TD*%
D28*
%TO.C,R179*%
X147306799Y-104267000D03*
X145656799Y-104267000D03*
%TD*%
D38*
%TO.C,Q2*%
X165704100Y-59375000D03*
X165704100Y-60325000D03*
X165704100Y-61275000D03*
X163429100Y-61275000D03*
X163429100Y-60325000D03*
X163429100Y-59375000D03*
%TD*%
D22*
%TO.C,R20*%
X179832000Y-76796400D03*
X179832000Y-75146400D03*
%TD*%
D66*
%TO.C,BT1*%
X180721000Y-129717800D03*
X179221000Y-129717800D03*
%TD*%
D29*
%TO.C,Q17*%
X171003200Y-107077000D03*
X171653200Y-107077000D03*
X172303199Y-107077000D03*
X172303199Y-109077000D03*
X171653200Y-109077000D03*
X171003200Y-109077000D03*
%TD*%
D26*
%TO.C,R69*%
X169773601Y-88202000D03*
X169773601Y-89852000D03*
%TD*%
D28*
%TO.C,R152*%
X151726400Y-76149200D03*
X150076400Y-76149200D03*
%TD*%
D26*
%TO.C,R60*%
X173482000Y-83426800D03*
X173482000Y-85076800D03*
%TD*%
D23*
%TO.C,R175*%
X151575000Y-98933000D03*
X153225000Y-98933000D03*
%TD*%
M02*
