M48
; DRILL file KiCad 10.0.6 date 2026-08-31T22:08:09
; FORMAT={-:-/ absolute / inch / decimal}
; #@! TF.CreationDate,2026-08-31T22:08:09-04:00
; #@! TF.GenerationSoftware,Kicad,Pcbnew,10.0.6
; #@! TF.FileFunction,Plated,1,4,PTH
FMAT,2
INCH
; #@! TA.AperFunction,Plated,PTH,ViaDrill
T1C0.0120
; #@! TA.AperFunction,Plated,PTH,ComponentDrill
T2C0.0120
; #@! TA.AperFunction,Plated,PTH,ComponentDrill
T3C0.0197
; #@! TA.AperFunction,Plated,PTH,ComponentDrill
T4C0.0236
; #@! TA.AperFunction,Plated,PTH,ComponentDrill
T5C0.0551
; #@! TA.AperFunction,Plated,PTH,ComponentDrill
T6C0.1063
; #@! TA.AperFunction,Plated,PTH,ComponentDrill
T7C0.1260
%
G90
G05
T1
X4.33Y-5.0675
X4.33Y-5.1325
X4.38Y-4.5655
X4.389Y-3.955
X4.3926Y-4.975
X4.3926Y-5.225
X4.3934Y-4.0867
X4.3934Y-4.1733
X4.3975Y-4.792
X4.3975Y-4.85
X4.3984Y-4.4003
X4.43Y-5.0552
X4.438Y-4.5005
X4.439Y-4.05
X4.439Y-4.08
X4.439Y-4.11
X4.441Y-3.804
X4.4425Y-3.862
X4.4625Y-4.792
X4.467Y-4.2431
X4.469Y-4.05
X4.469Y-4.08
X4.469Y-4.11
X4.474Y-3.918
X4.496Y-4.5005
X4.53Y-5.1325
X4.554Y-4.5005
X4.5605Y-3.4219
X4.6276Y-4.6404
X4.6276Y-5.0396
X4.628Y-4.9396
X4.638Y-4.342
X4.644Y-3.7453
X4.6765Y-3.823
X4.698Y-4.442
X4.708Y-3.509
X4.71Y-4.533
X4.7515Y-3.3959
X4.77Y-2.9887
X4.796Y-5.172
X4.8196Y-4.0341
X4.8196Y-4.2692
X4.8401Y-3.4849
X4.854Y-5.023
X4.9139Y-3.4474
X4.915Y-4.1127
X4.9565Y-2.481
X4.9635Y-3.28
X4.9635Y-3.359
X4.9635Y-3.438
X4.9766Y-2.692
X4.983Y-4.0531
X4.983Y-4.3503
X4.988Y-5.0626
X5.0245Y-3.359
X5.031Y-4.0531
X5.031Y-4.3503
X5.04Y-5.161
X5.042Y-4.5005
X5.043Y-3.576
X5.05Y-3.012
X5.061Y-3.328
X5.061Y-3.3806
X5.061Y-3.411
X5.061Y-3.4696
X5.061Y-3.501
X5.062Y-3.201
X5.062Y-3.249
X5.062Y-3.296
X5.0675Y-4.997
X5.074Y-2.937
X5.0838Y-5.1098
X5.096Y-2.861
X5.1009Y-5.0237
X5.101Y-5.197
X5.1125Y-4.221
X5.114Y-3.176
X5.119Y-3.569
X5.121Y-4.649
X5.1305Y-2.7475
X5.1325Y-4.997
X5.1325Y-2.481
X5.134Y-3.122
X5.138Y-5.197
X5.142Y-3.227
X5.142Y-3.2646
X5.142Y-3.31
X5.142Y-3.344
X5.142Y-3.39
X5.142Y-3.422
X5.143Y-3.454
X5.143Y-3.485
X5.152Y-3.612
X5.155Y-5.167
X5.165Y-3.122
X5.17Y-3.5269
X5.177Y-3.7215
X5.198Y-3.613
X5.1996Y-3.122
X5.2Y-2.756
X5.202Y-5.0695
X5.202Y-5.1305
X5.2074Y-3.5111
X5.2164Y-3.2201
X5.2275Y-4.312
X5.229Y-3.613
X5.2436Y-3.4595
X5.2487Y-3.7185
X5.2545Y-2.921
X5.255Y-2.6815
X5.255Y-2.7465
X5.2584Y-3.52
X5.26Y-4.113
X5.2744Y-3.2201
X5.2925Y-4.312
X5.31Y-4.608
X5.3154Y-3.5111
X5.324Y-3.593
X5.3324Y-3.2201
X5.3353Y-3.7855
X5.348Y-4.1405
X5.353Y-4.378
X5.353Y-4.408
X5.354Y-3.593
X5.363Y-3.511
X5.368Y-4.5005
X5.368Y-4.608
X5.383Y-4.378
X5.383Y-4.408
X5.3835Y-3.593
X5.392Y-3.078
X5.3926Y-3.105
X5.394Y-3.526
X5.3994Y-3.2212
X5.407Y-3.7825
X5.416Y-4.1336
X5.419Y-3.435
X5.424Y-2.7465
X5.426Y-3.526
X5.426Y-4.5005
X5.426Y-4.608
X5.435Y-3.593
X5.45Y-3.249
X5.45Y-3.281
X5.45Y-3.312
X5.45Y-3.343
X5.45Y-3.382
X5.45Y-3.422
X5.45Y-3.453
X5.45Y-3.483
X5.45Y-3.717
X5.45Y-3.749
X5.45Y-3.783
X5.4674Y-3.078
X5.4674Y-3.105
X5.47Y-3.56
X5.48Y-4.0404
X5.48Y-4.1404
X5.48Y-4.241
X5.505Y-5.007
X5.505Y-5.0396
X5.505Y-5.072
X5.52Y-3.2546
X5.52Y-3.2985
X5.52Y-3.3415
X5.52Y-3.406
X5.52Y-3.463
X5.5245Y-2.564
X5.525Y-4.986
X5.525Y-5.092
X5.539Y-3.841
X5.556Y-4.986
X5.556Y-5.092
X5.5565Y-2.459
X5.5565Y-2.517
X5.5585Y-3.361
X5.569Y-3.0436
X5.5724Y-5.1396
X5.574Y-5.555
X5.574Y-5.59
X5.574Y-5.625
X5.574Y-5.66
X5.574Y-5.695
X5.574Y-5.73
X5.5855Y-2.564
X5.587Y-4.986
X5.587Y-5.092
X5.618Y-4.986
X5.618Y-5.092
X5.6185Y-3.529
X5.6195Y-3.187
X5.6195Y-3.245
X5.6195Y-3.361
X5.62Y-2.343
X5.624Y-2.6815
X5.639Y-3.841
X5.649Y-4.993
X5.66Y-5.462
X5.66Y-5.4948
X5.6606Y-5.1017
X5.6606Y-5.1345
X5.6606Y-5.1672
X5.6606Y-5.2
X5.6606Y-5.2327
X5.6606Y-5.2655
X5.6606Y-5.2982
X5.6606Y-5.331
X5.6606Y-5.3638
X5.6606Y-5.3965
X5.6606Y-5.4293
X5.6776Y-5.0083
X5.685Y-2.683
X5.7096Y-5.03
X5.727Y-3.491
X5.7313Y-5.062
X5.7345Y-4.105
X5.7345Y-4.221
X5.7345Y-4.047
X5.7345Y-4.826
X5.7393Y-5.0998
X5.7394Y-5.1345
X5.7394Y-5.1672
X5.7394Y-5.2
X5.7394Y-5.2327
X5.7394Y-5.2655
X5.7394Y-5.2982
X5.7394Y-5.331
X5.7394Y-5.3638
X5.7394Y-5.3965
X5.7394Y-5.4293
X5.7397Y-5.462
X5.7397Y-5.4948
X5.741Y-2.936
X5.749Y-3.111
X5.767Y-3.887
X5.767Y-4.5101
X5.7915Y-2.998
X5.795Y-3.1245
X5.7995Y-4.163
X5.7995Y-4.326
X5.7995Y-4.652
X5.7995Y-4.71
X5.7995Y-4.826
X5.826Y-5.555
X5.826Y-5.59
X5.826Y-5.625
X5.826Y-5.66
X5.826Y-5.695
X5.826Y-5.73
X5.831Y-2.6346
X5.831Y-2.7094
X5.838Y-3.508
X5.851Y-4.011
X5.859Y-4.884
X5.859Y-4.914
X5.8819Y-2.6651
X5.889Y-4.884
X5.889Y-4.914
X5.9Y-3.2005
X5.9Y-3.2615
X5.9Y-3.914
X5.9Y-4.7005
X5.9Y-4.7615
X5.904Y-2.73
X5.9055Y-2.5885
X5.913Y-4.234
X5.913Y-4.264
X5.919Y-4.884
X5.919Y-4.914
X5.926Y-2.904
X5.943Y-4.234
X5.943Y-4.264
X5.952Y-4.578
X5.9606Y-2.6651
X5.9675Y-3.837
X5.973Y-4.234
X5.973Y-4.264
X5.98Y-4.753
X5.9803Y-3.2513
X5.988Y-4.578
X6.0Y-2.642
X6.0Y-2.7316
X6.0Y-2.998
X6.0Y-4.003
X6.021Y-4.233
X6.03Y-3.6454
X6.0394Y-2.6651
X6.0668Y-3.877
X6.074Y-3.092
X6.088Y-4.09
X6.0915Y-2.998
X6.094Y-4.396
X6.096Y-2.6965
X6.111Y-2.5885
X6.1318Y-3.9625
X6.16Y-3.5689
X6.161Y-3.3035
X6.161Y-3.8715
X6.161Y-4.0535
X6.161Y-4.8035
X6.162Y-2.836
X6.175Y-5.5552
X6.175Y-5.5902
X6.175Y-5.6252
X6.175Y-5.6602
X6.175Y-5.6952
X6.175Y-5.7302
X6.1885Y-4.481
X6.1985Y-4.6215
X6.205Y-2.8715
X6.2065Y-3.121
X6.2085Y-2.998
X6.212Y-2.6315
X6.212Y-2.6965
X6.218Y-3.5689
X6.235Y-4.651
X6.2567Y-4.843
X6.2567Y-5.3073
X6.257Y-4.811
X6.257Y-4.875
X6.257Y-5.255
X6.259Y-5.4622
X6.259Y-5.495
X6.2596Y-5.364
X6.2596Y-5.3968
X6.2596Y-5.4295
X6.277Y-3.507
X6.282Y-4.6505
X6.3Y-5.255
X6.34Y-4.593
X6.34Y-4.6505
X6.3404Y-5.364
X6.3404Y-5.3968
X6.3404Y-5.4295
X6.3407Y-5.4622
X6.3407Y-5.495
X6.343Y-5.255
X6.3433Y-5.3073
X6.363Y-2.7225
X6.363Y-2.7875
X6.363Y-3.0235
X6.363Y-3.4725
X6.363Y-3.5375
X6.363Y-4.2225
X6.363Y-4.2875
X6.366Y-2.45
X6.366Y-2.886
X6.366Y-3.636
X6.366Y-4.386
X6.395Y-5.1065
X6.421Y-2.7225
X6.421Y-2.7875
X6.421Y-3.4725
X6.421Y-3.5375
X6.421Y-4.2225
X6.421Y-4.2875
X6.424Y-2.3
X6.424Y-2.45
X6.424Y-2.8225
X6.424Y-2.8875
X6.424Y-3.218
X6.424Y-3.5725
X6.424Y-3.6375
X6.424Y-3.968
X6.424Y-4.3875
X6.424Y-4.932
X6.427Y-5.5552
X6.427Y-5.5902
X6.427Y-5.6252
X6.427Y-5.6602
X6.427Y-5.6952
X6.427Y-5.7302
X6.474Y-5.056
X6.474Y-5.104
X6.4755Y-2.599
X6.4755Y-2.661
X6.4755Y-3.411
X6.4755Y-4.099
X6.4755Y-4.161
X6.479Y-2.7875
X6.479Y-4.2875
X6.479Y-3.5375
X6.482Y-4.3225
X6.482Y-4.3875
X6.498Y-4.969
X6.498Y-5.08
X6.522Y-5.056
X6.522Y-5.104
X6.5238Y-2.45
X6.5238Y-2.9162
X6.5394Y-4.5877
X6.54Y-3.5725
X6.54Y-3.6375
X6.54Y-4.3225
X6.5689Y-4.435
X6.569Y-3.689
X6.571Y-2.938
X6.577Y-4.067
X6.61Y-2.567
X6.614Y-2.45
X6.656Y-2.8245
X6.656Y-4.3245
X6.656Y-3.5745
X6.684Y-2.5345
X6.684Y-2.661
X6.684Y-2.7875
X6.684Y-3.2845
X6.684Y-3.411
X6.684Y-4.0345
X6.684Y-4.161
X6.684Y-4.2225
X6.684Y-4.2875
X6.684Y-3.5375
X6.688Y-5.0035
X6.6891Y-4.7032
X6.714Y-4.3225
X6.716Y-3.744
X6.727Y-2.994
X6.727Y-4.442
X6.727Y-4.494
X6.758Y-2.755
X6.758Y-3.505
X6.758Y-4.255
X6.7865Y-5.382
X6.798Y-3.126
X6.798Y-3.161
X6.798Y-3.196
X6.798Y-3.231
X6.798Y-3.876
X6.798Y-3.911
X6.798Y-3.946
X6.798Y-3.981
X6.798Y-4.626
X6.798Y-4.661
X6.798Y-4.696
X6.798Y-4.731
X6.833Y-3.126
X6.833Y-3.161
X6.833Y-3.196
X6.833Y-3.231
X6.833Y-3.876
X6.833Y-3.911
X6.833Y-3.946
X6.833Y-3.981
X6.833Y-4.626
X6.833Y-4.661
X6.833Y-4.696
X6.833Y-4.731
X6.868Y-3.126
X6.868Y-3.161
X6.868Y-3.196
X6.868Y-3.231
X6.868Y-3.876
X6.868Y-3.911
X6.868Y-3.946
X6.868Y-3.981
X6.868Y-4.626
X6.868Y-4.661
X6.868Y-4.696
X6.868Y-4.731
X6.887Y-2.887
X6.887Y-2.922
X6.887Y-2.957
X6.889Y-2.5345
X6.889Y-3.2845
X6.889Y-4.0345
X6.8905Y-4.284
X6.8925Y-2.661
X6.8925Y-2.723
X6.8925Y-3.411
X6.8925Y-3.473
X6.8925Y-4.161
X6.922Y-2.887
X6.922Y-2.922
X6.922Y-2.957
X6.956Y-4.691
X6.956Y-4.725
X6.957Y-2.887
X6.957Y-2.922
X6.957Y-2.957
X6.992Y-2.887
X6.992Y-2.922
X6.992Y-2.957
X7.027Y-2.887
X7.027Y-2.922
X7.027Y-2.957
X7.07Y-4.463
X7.076Y-2.5345
X7.076Y-2.5995
X7.095Y-3.7
X7.095Y-3.735
X7.095Y-3.77
X7.1Y-4.463
X7.113Y-4.1279
X7.113Y-4.2067
X7.113Y-4.285
X7.113Y-4.0492
X7.13Y-3.7
X7.13Y-3.735
X7.13Y-3.77
X7.134Y-2.5995
X7.141Y-4.0098
X7.141Y-4.0886
X7.141Y-4.1673
X7.141Y-3.833
X7.141Y-3.871
X7.141Y-3.921
X7.141Y-4.2461
X7.275Y-3.921
X7.2762Y-3.9901
X7.2762Y-4.0295
X7.2762Y-4.0689
X7.2762Y-4.1083
X7.2762Y-4.1476
X7.2762Y-4.187
X7.2762Y-4.2264
X7.2762Y-4.2657
X7.325Y-3.6475
X7.325Y-3.6875
X7.325Y-3.825
X7.325Y-3.875
X7.325Y-3.925
X7.325Y-4.075
X7.325Y-4.125
X7.325Y-4.175
X7.325Y-4.3125
X7.325Y-4.3525
X7.356Y-2.5995
X7.359Y-2.855
X7.359Y-2.89
X7.359Y-2.925
X7.359Y-3.055
X7.359Y-3.09
X7.359Y-3.125
X7.374Y-3.921
X7.374Y-3.9902
X7.374Y-4.0295
X7.374Y-4.0689
X7.374Y-4.1083
X7.374Y-4.1476
X7.374Y-4.187
X7.374Y-4.2264
X7.374Y-4.2657
X7.394Y-2.855
X7.394Y-2.89
X7.394Y-2.925
X7.394Y-3.055
X7.394Y-3.09
X7.394Y-3.125
X7.429Y-2.855
X7.429Y-2.89
X7.429Y-2.925
X7.429Y-3.055
X7.429Y-3.09
X7.429Y-3.125
X7.464Y-2.855
X7.464Y-2.89
X7.464Y-2.925
X7.464Y-3.055
X7.464Y-3.09
X7.464Y-3.125
X7.4721Y-2.7579
X7.4721Y-3.2221
X7.499Y-2.855
X7.499Y-2.89
X7.499Y-2.925
X7.499Y-3.055
X7.499Y-3.09
X7.499Y-3.125
X7.509Y-3.834
X7.509Y-3.872
X7.509Y-3.921
X7.509Y-4.0098
X7.509Y-4.0886
X7.509Y-4.128
X7.509Y-4.1673
X7.509Y-4.2067
X7.509Y-4.2461
X7.509Y-4.2854
X7.5121Y-2.7579
X7.5121Y-3.2221
X7.54Y-4.0492
X7.549Y-3.7
X7.549Y-3.735
X7.549Y-3.77
X7.559Y-2.641
X7.584Y-3.7
X7.584Y-3.735
X7.584Y-3.77
X7.604Y-4.071
X7.617Y-2.5995
X7.619Y-3.7
X7.619Y-3.735
X7.619Y-3.77
X7.629Y-4.101
X7.654Y-3.7
X7.654Y-3.735
X7.654Y-3.77
X7.689Y-3.7
X7.689Y-3.735
X7.689Y-3.77
T2
X5.2474Y-3.3224
X5.2474Y-3.367
X5.2474Y-3.4116
X5.292Y-3.3224
X5.292Y-3.367
X5.292Y-3.4116
X5.3366Y-3.3224
X5.3366Y-3.367
X5.3366Y-3.4116
T3
X4.4805Y-2.3125
X4.4805Y-5.6875
X4.5082Y-2.2457
X4.5082Y-2.3793
X4.5082Y-5.6207
X4.5082Y-5.7543
X4.575Y-2.218
X4.575Y-2.407
X4.575Y-5.593
X4.575Y-5.782
X4.6418Y-2.2457
X4.6418Y-2.3793
X4.6418Y-5.6207
X4.6418Y-5.7543
X4.6695Y-2.3125
X4.6695Y-5.6875
X7.2453Y-3.4
X7.2453Y-4.6
X7.2686Y-3.3436
X7.2686Y-3.4564
X7.2686Y-4.5436
X7.2686Y-4.6564
X7.325Y-3.3203
X7.325Y-3.4797
X7.325Y-4.5203
X7.325Y-4.6797
X7.3305Y-2.3125
X7.3305Y-5.6875
X7.3582Y-2.2457
X7.3582Y-2.3793
X7.3582Y-5.6207
X7.3582Y-5.7543
X7.3814Y-3.3436
X7.3814Y-3.4564
X7.3814Y-4.5436
X7.3814Y-4.6564
X7.4047Y-3.4
X7.4047Y-4.6
X7.425Y-2.218
X7.425Y-2.407
X7.425Y-5.593
X7.425Y-5.782
X7.4918Y-2.2457
X7.4918Y-2.3793
X7.4918Y-5.6207
X7.4918Y-5.7543
X7.5195Y-2.3125
X7.5195Y-5.6875
T5
X7.606Y-2.84
X7.606Y-2.94
X7.606Y-3.04
X7.606Y-3.14
T6
X7.325Y-3.4
X7.325Y-4.6
T7
X4.575Y-2.3125
X4.575Y-5.6875
X7.425Y-2.3125
X7.425Y-5.6875
T4
G00X5.8299Y-2.3584
M15
G01X5.8299Y-2.3269
M16
G05
G00X5.8299Y-2.5289
M15
G01X5.8299Y-2.4856
M16
G05
G00X6.1701Y-2.3584
M15
G01X6.1701Y-2.3269
M16
G05
G00X6.1701Y-2.5289
M15
G01X6.1701Y-2.4856
M16
G05
M30
