%TF.GenerationSoftware,KiCad,Pcbnew,10.0.6*%
%TF.CreationDate,2026-08-31T22:08:09-04:00*%
%TF.ProjectId,Avionics-MainBoard,4176696f-6e69-4637-932d-4d61696e426f,rev?*%
%TF.SameCoordinates,Original*%
%TF.FileFunction,Profile,NP*%
%FSLAX46Y46*%
G04 Gerber Fmt 4.6, Leading zero omitted, Abs format (unit mm)*
G04 Created by KiCad (PCBNEW 10.0.6) date 2026-08-31 22:08:09*
%MOMM*%
%LPD*%
G01*
G04 APERTURE LIST*
%TA.AperFunction,Profile*%
%ADD10C,0.025400*%
%TD*%
%TA.AperFunction,Profile*%
%ADD11C,0.010000*%
%TD*%
G04 APERTURE END LIST*
D10*
X107315000Y-55657500D02*
X107315000Y-147542500D01*
X107315000Y-55657500D02*
G75*
G02*
X109315000Y-53657500I2000000J0D01*
G01*
X109315000Y-149542500D02*
G75*
G02*
X107315000Y-147542500I0J2000000D01*
G01*
X118234073Y-53657500D02*
X109315000Y-53657500D01*
X118234073Y-53657500D02*
G75*
G02*
X119648300Y-54243272I27J-2000000D01*
G01*
X118234073Y-149542500D02*
X109315000Y-149542500D01*
X119648286Y-148956714D02*
G75*
G02*
X118234073Y-149542481I-1414186J1414214D01*
G01*
X121334213Y-55929213D02*
X119648286Y-54243286D01*
X121334213Y-147270787D02*
X119648286Y-148956714D01*
X121334213Y-147270787D02*
G75*
G02*
X122748427Y-146685019I1414187J-1414213D01*
G01*
X122748427Y-56515000D02*
G75*
G02*
X121334220Y-55929206I-27J1999900D01*
G01*
X122748427Y-56515000D02*
X182051573Y-56515000D01*
X142330000Y-146685200D02*
X122748427Y-146685000D01*
X147230000Y-146685200D02*
X157570000Y-146685200D01*
X162470000Y-146685200D02*
X182051573Y-146685000D01*
X182051573Y-146685000D02*
G75*
G02*
X183465780Y-147270794I27J-1999900D01*
G01*
X183465787Y-55929213D02*
G75*
G02*
X182051573Y-56514981I-1414187J1414213D01*
G01*
X183465787Y-55929213D02*
X185151714Y-54243286D01*
X183465787Y-147270787D02*
X185151714Y-148956714D01*
X185151714Y-54243286D02*
G75*
G02*
X186565927Y-53657519I1414186J-1414214D01*
G01*
X186565927Y-53657500D02*
X195485000Y-53657500D01*
X186565927Y-149542500D02*
G75*
G02*
X185151721Y-148956707I-27J1999900D01*
G01*
X186565927Y-149542500D02*
X195485000Y-149542500D01*
X195485000Y-53657500D02*
G75*
G02*
X197485000Y-55657500I0J-2000000D01*
G01*
X195485000Y-68373127D02*
G75*
G02*
X196070772Y-66958900I2000000J27D01*
G01*
X195485000Y-83516607D02*
X195485000Y-68373127D01*
X196070787Y-84930821D02*
G75*
G02*
X195485024Y-83516607I1414313J1414221D01*
G01*
X196070787Y-84930821D02*
X196899214Y-85759248D01*
X196899213Y-66130487D02*
X196070786Y-66958914D01*
X196899214Y-85759248D02*
G75*
G02*
X197485027Y-87173461I-1414214J-1414252D01*
G01*
X197485000Y-64716273D02*
G75*
G02*
X196899206Y-66130480I-1999900J-27D01*
G01*
X197485000Y-64716273D02*
X197485000Y-55657500D01*
X197485000Y-87173461D02*
X197485000Y-147542500D01*
X197485000Y-147542500D02*
G75*
G02*
X195485000Y-149542500I-2000000J0D01*
G01*
%TO.C,J12*%
D11*
X157570000Y-140635200D02*
X157570000Y-146685200D01*
X162220000Y-140385200D02*
X157820000Y-140385200D01*
X162470000Y-146685200D02*
X162470000Y-140635200D01*
X157320000Y-140385200D02*
G75*
G02*
X157570000Y-140135200I250000J0D01*
G01*
X157570000Y-140135200D02*
G75*
G02*
X157820000Y-140385200I0J-250000D01*
G01*
X157570000Y-140635200D02*
G75*
G02*
X157320000Y-140385200I0J250000D01*
G01*
X162220000Y-140385200D02*
G75*
G02*
X162470000Y-140135200I249999J1D01*
G01*
X162470000Y-140135200D02*
G75*
G02*
X162720000Y-140385200I1J-249999D01*
G01*
X162720000Y-140385200D02*
G75*
G02*
X162470000Y-140635200I-249999J-1D01*
G01*
%TO.C,J11*%
X142330000Y-140635200D02*
X142330000Y-146685200D01*
X146980000Y-140385200D02*
X142580000Y-140385200D01*
X147230000Y-146685200D02*
X147230000Y-140635200D01*
X142080000Y-140385200D02*
G75*
G02*
X142330000Y-140135200I250000J0D01*
G01*
X142330000Y-140135200D02*
G75*
G02*
X142580000Y-140385200I0J-250000D01*
G01*
X142330000Y-140635200D02*
G75*
G02*
X142080000Y-140385200I0J250000D01*
G01*
X146980000Y-140385200D02*
G75*
G02*
X147230000Y-140135200I249999J1D01*
G01*
X147230000Y-140135200D02*
G75*
G02*
X147480000Y-140385200I1J-249999D01*
G01*
X147480000Y-140385200D02*
G75*
G02*
X147230000Y-140635200I-249999J-1D01*
G01*
%TD*%
M02*
